<svg xmlns="http://www.w3.org/2000/svg" width="64" height="64" viewBox="0 0 64 64">
  <path fill="#FF5D01" d="M39.4,0c-0.3,0.3-0.4,0.7-0.5,1.1L31.5,45c-0.1,0.4-0.5,0.7-0.9,0.7h-0.1c-0.4,0-0.8-0.3-0.9-0.7L22.1,1.1 C22,0.7,21.8,0.3,21.6,0H8.7c-0.4,0-0.7,0.3-0.7,0.7v62.6c0,0.4,0.3,0.7,0.7,0.7h11.6c0.4,0,0.7-0.3,0.7-0.7V19.5 c0-0.4,0.5-0.6,0.8-0.3l7.9,44.4c0.1,0.4,0.5,0.7,0.9,0.7h0.1c0.4,0,0.8-0.3,0.9-0.7l7.9-44.4c0.2-0.3,0.7-0.1,0.7,0.3v43.8 c0,0.4,0.3,0.7,0.7,0.7h11.6c0.4,0,0.7-0.3,0.7-0.7V0.7c0-0.4-0.3-0.7-0.7-0.7H39.4z"/>
</svg>