<svg xmlns="http://www.w3.org/2000/svg" width="64" height="64" viewBox="0 0 64 64">
  <path fill="#38BDF8" d="M32 16C24.8 16 20.3 19.6 18.5 26.8c2.2-3.2 4.8-4.4 7.7-3.6c1.7.5 2.9 1.9 4.3 3.4c2.2 2.4 4.8 5.2 10.5 5.2c7.2 0 11.7-3.6 13.5-10.8c-2.2 3.2-4.8 4.4-7.7 3.6c-1.7-.5-2.9-1.9-4.3-3.4c-2.2-2.4-4.8-5.2-10.5-5.2zM18.5 32C11.3 32 6.8 35.6 5 42.8c2.2-3.2 4.8-4.4 7.7-3.6c1.7.5 2.9 1.9 4.3 3.4c2.2 2.4 4.8 5.2 10.5 5.2c7.2 0 11.7-3.6 13.5-10.8c-2.2 3.2-4.8 4.4-7.7 3.6c-1.7-.5-2.9-1.9-4.3-3.4c-2.2-2.4-4.8-5.2-10.5-5.2z"/>
</svg>